<mxfile host="Electron" agent="Mozilla/5.0 (Windows NT 10.0; Win64; x64) AppleWebKit/537.36 (KHTML, like Gecko) draw.io/24.7.8 Chrome/128.0.6613.36 Electron/32.0.1 Safari/537.36" version="24.7.8">
  <diagram name="Page-1" id="dd472eb7-4b8b-5cd9-a60b-b15522922e76">
    <mxGraphModel dx="1170" dy="772" grid="1" gridSize="10" guides="1" tooltips="1" connect="1" arrows="1" fold="1" page="1" pageScale="1" pageWidth="1200" pageHeight="690" background="none" math="0" shadow="0">
      <root>
        <mxCell id="0" />
        <mxCell id="1" parent="0" />
        <mxCell id="45236fa5f4b8e91a-1" value="000&lt;br&gt;0&lt;br&gt;0&lt;br&gt;0&lt;br&gt;0" style="ellipse;whiteSpace=wrap;html=1;rounded=0;shadow=0;dashed=0;comic=0;fontFamily=Verdana;fontSize=22;fillColor=none;" parent="1" vertex="1">
          <mxGeometry x="512" y="4" width="160" height="160" as="geometry" />
        </mxCell>
        <mxCell id="45236fa5f4b8e91a-2" value="100&lt;br&gt;4&lt;br&gt;0&lt;br&gt;-3&lt;br&gt;-4" style="ellipse;whiteSpace=wrap;html=1;rounded=0;shadow=0;dashed=0;comic=0;fontFamily=Verdana;fontSize=22;fillColor=none;" parent="1" vertex="1">
          <mxGeometry x="512" y="524" width="160" height="160" as="geometry" />
        </mxCell>
        <mxCell id="45236fa5f4b8e91a-3" value="010&lt;br&gt;2&lt;br&gt;2&lt;br&gt;2&lt;br&gt;2" style="ellipse;whiteSpace=wrap;html=1;rounded=0;shadow=0;dashed=0;comic=0;fontFamily=Verdana;fontSize=22;fillColor=none;" parent="1" vertex="1">
          <mxGeometry x="772" y="264" width="160" height="160" as="geometry" />
        </mxCell>
        <mxCell id="45236fa5f4b8e91a-4" value="110&lt;br&gt;6&lt;br&gt;-2&lt;br&gt;-1&lt;br&gt;-2" style="ellipse;whiteSpace=wrap;html=1;rounded=0;shadow=0;dashed=0;comic=0;fontFamily=Verdana;fontSize=22;fillColor=none;" parent="1" vertex="1">
          <mxGeometry x="252" y="264" width="160" height="160" as="geometry" />
        </mxCell>
        <mxCell id="45236fa5f4b8e91a-5" value="111&lt;br&gt;7&lt;br&gt;-3&lt;br&gt;0&lt;br&gt;-1" style="ellipse;whiteSpace=wrap;html=1;rounded=0;shadow=0;dashed=0;comic=0;fontFamily=Verdana;fontSize=22;fillColor=none;" parent="1" vertex="1">
          <mxGeometry x="336" y="84" width="160" height="160" as="geometry" />
        </mxCell>
        <mxCell id="45236fa5f4b8e91a-6" value="001&lt;br&gt;1&lt;br&gt;1&lt;br&gt;1&lt;br&gt;1" style="ellipse;whiteSpace=wrap;html=1;rounded=0;shadow=0;dashed=0;comic=0;fontFamily=Verdana;fontSize=22;fillColor=none;" parent="1" vertex="1">
          <mxGeometry x="690" y="86" width="160" height="160" as="geometry" />
        </mxCell>
        <mxCell id="45236fa5f4b8e91a-7" value="011&lt;br&gt;3&lt;br&gt;3&lt;br&gt;3&lt;br&gt;3" style="ellipse;whiteSpace=wrap;html=1;rounded=0;shadow=0;dashed=0;comic=0;fontFamily=Verdana;fontSize=22;fillColor=none;" parent="1" vertex="1">
          <mxGeometry x="689" y="444" width="160" height="160" as="geometry" />
        </mxCell>
        <mxCell id="45236fa5f4b8e91a-8" value="101&lt;br&gt;5&lt;br&gt;-1&lt;br&gt;-2&lt;br&gt;-3" style="ellipse;whiteSpace=wrap;html=1;rounded=0;shadow=0;dashed=0;comic=0;fontFamily=Verdana;fontSize=22;fillColor=none;" parent="1" vertex="1">
          <mxGeometry x="330" y="445" width="160" height="160" as="geometry" />
        </mxCell>
        <mxCell id="pysUvwWHEawljPbUkQBU-1" value="" style="verticalLabelPosition=bottom;verticalAlign=top;html=1;shape=mxgraph.basic.arc;startAngle=0.375;endAngle=0.23557103081184777;strokeColor=default;" vertex="1" parent="1">
          <mxGeometry x="505" y="264" width="174" height="174" as="geometry" />
        </mxCell>
        <mxCell id="pysUvwWHEawljPbUkQBU-2" value="" style="endArrow=classic;html=1;rounded=0;" edge="1" parent="1">
          <mxGeometry width="50" height="50" relative="1" as="geometry">
            <mxPoint x="679.1324999999999" y="343" as="sourcePoint" />
            <mxPoint x="679" y="350" as="targetPoint" />
          </mxGeometry>
        </mxCell>
      </root>
    </mxGraphModel>
  </diagram>
</mxfile>
